Coordinates
version=1
nRows=37
nColumns=38
inDegrees=no

Units are S.I. units (second, meters, Newtons, ...)
If the header above contains a line with 'inDegrees', this indicates whether rotational values are in degrees (yes) or radians (no).

endheader
time	pelvis_tilt	pelvis_list	pelvis_rotation	pelvis_tx	pelvis_ty	pelvis_tz	hip_flexion_r	hip_adduction_r	hip_rotation_r	knee_angle_r	ankle_angle_r	subtalar_angle_r	mtp_angle_r	hip_flexion_l	hip_adduction_l	hip_rotation_l	knee_angle_l	ankle_angle_l	subtalar_angle_l	mtp_angle_l	lumbar_extension	lumbar_bending	lumbar_rotation	arm_flex_r	arm_add_r	arm_rot_r	elbow_flex_r	pro_sup_r	wrist_flex_r	wrist_dev_r	arm_flex_l	arm_add_l	arm_rot_l	elbow_flex_l	pro_sup_l	wrist_flex_l	wrist_dev_l
0.41	0.544244	1.50069	-2.11728	0.701007	0.779756	1.06829	-0.024463	0.0160034	-0.0380073	0.308431	-0.0898383	0	0	0.247476	0.0194511	-0.229895	0.895815	-0.0683843	0	0	-0.223502	0.127592	-0.094296	-0.178114	-0.236686	-0.240896	0.445865	0.641863	0	0	-0.201221	-0.48825	0.90891	0.630834	0.798835	0	0
0.42	0.56294	1.4983	-2.13893	0.700604	0.77038	1.06812	-0.0377851	0.0134654	-0.0338047	0.30416	-0.0861242	0	0	0.253897	0.0218718	-0.244051	0.854071	-0.0725026	0	0	-0.226201	0.123188	-0.0920655	-0.178605	-0.23555	-0.243581	0.447562	0.643788	0	0	-0.207619	-0.478842	0.919888	0.621326	0.783331	0	0
0.43	0.579954	1.49621	-2.15891	0.700237	0.761025	1.06777	-0.0504965	0.0112526	-0.0296536	0.302087	-0.0817272	0	0	0.259188	0.0242545	-0.257603	0.809709	-0.0772422	0	0	-0.228629	0.118807	-0.0897814	-0.179261	-0.234392	-0.246167	0.449558	0.645493	0	0	-0.214273	-0.470012	0.929669	0.612725	0.767329	0	0
0.44	0.59475	1.49463	-2.17677	0.699874	0.751675	1.06724	-0.0626988	0.00926765	-0.0253354	0.300184	-0.0764772	0	0	0.263703	0.0264828	-0.270659	0.762496	-0.0830425	0	0	-0.230436	0.114539	-0.0875183	-0.180016	-0.233105	-0.249096	0.451884	0.647666	0	0	-0.220831	-0.461715	0.939906	0.604631	0.748719	0	0
0.45	0.614352	1.49443	-2.20016	0.69945	0.742202	1.0665	-0.0734072	0.00758367	-0.0204709	0.29821	-0.0710807	0	0	0.268185	0.0279614	-0.283608	0.713285	-0.0892579	0	0	-0.230168	0.110464	-0.0851203	-0.180367	-0.231915	-0.25161	0.453206	0.649091	0	0	-0.228847	-0.45261	0.946286	0.595729	0.732412	0	0
0.46	0.63495	1.49491	-2.22427	0.699071	0.732699	1.06559	-0.0835509	0.0061875	-0.0162501	0.296329	-0.0650438	0	0	0.272263	0.0292698	-0.294682	0.663012	-0.0963211	0	0	-0.228867	0.106647	-0.0831399	-0.180379	-0.230671	-0.253846	0.453875	0.650203	0	0	-0.237056	-0.443467	0.951713	0.586636	0.716199	0	0
0.47	0.656329	1.49601	-2.24859	0.698804	0.723191	1.06455	-0.0932811	0.00502486	-0.0132234	0.294251	-0.059953	0	0	0.27625	0.0308378	-0.303137	0.612674	-0.103621	0	0	-0.226828	0.103134	-0.0815527	-0.180318	-0.229721	-0.254329	0.454129	0.652083	0	0	-0.245501	-0.434348	0.95491	0.577663	0.702344	0	0
0.48	0.680998	1.49787	-2.27568	0.698625	0.713695	1.06338	-0.102303	0.00386305	-0.0106974	0.291443	-0.0557946	0	0	0.280366	0.0329017	-0.30949	0.562204	-0.111584	0	0	-0.223829	0.10002	-0.0806572	-0.179648	-0.228884	-0.25382	0.453448	0.654338	0	0	-0.253669	-0.425352	0.958266	0.568498	0.688542	0	0
0.49	0.713951	1.50076	-2.31059	0.698497	0.704179	1.06201	-0.110176	0.00297063	-0.00896869	0.288649	-0.051615	0	0	0.285595	0.0350049	-0.314843	0.513756	-0.118847	0	0	-0.219362	0.0972034	-0.0804599	-0.1787	-0.227783	-0.253821	0.452298	0.65533	0	0	-0.2618	-0.417009	0.962008	0.560056	0.675566	0	0
0.5	0.745228	1.50393	-2.3435	0.698405	0.694622	1.06056	-0.117994	0.00244126	-0.00821117	0.285278	-0.0481354	0	0	0.290902	0.0369227	-0.318791	0.46866	-0.123693	0	0	-0.215009	0.0947969	-0.0801661	-0.178026	-0.226559	-0.254089	0.451431	0.65545	0	0	-0.269831	-0.409597	0.964493	0.553103	0.664806	0	0
0.51	0.777591	1.50695	-2.37755	0.698343	0.685019	1.05904	-0.125635	0.00171831	-0.00909684	0.282438	-0.0446218	0	0	0.296222	0.0394188	-0.321741	0.426757	-0.128137	0	0	-0.210869	0.0922262	-0.0797861	-0.177405	-0.225307	-0.25406	0.450415	0.65551	0	0	-0.277435	-0.403038	0.967193	0.546803	0.653808	0	0
0.52	0.813593	1.5095	-2.41599	0.698248	0.675316	1.05744	-0.133154	0.000464924	-0.0109504	0.280929	-0.0407005	0	0	0.301384	0.0424019	-0.324782	0.388858	-0.131545	0	0	-0.206882	0.0889855	-0.0784185	-0.177288	-0.223941	-0.254125	0.449671	0.655161	0	0	-0.284747	-0.397792	0.970779	0.541946	0.644503	0	0
0.53	0.845804	1.51112	-2.45167	0.698097	0.665544	1.05587	-0.141019	-0.00137634	-0.0131759	0.28033	-0.0364884	0	0	0.305873	0.0451589	-0.327715	0.35654	-0.133799	0	0	-0.203846	0.0851006	-0.0759617	-0.177254	-0.222515	-0.254076	0.448999	0.65451	0	0	-0.291316	-0.39307	0.975592	0.537071	0.637526	0	0
0.54	0.86743	1.51161	-2.4777	0.697903	0.655754	1.05435	-0.149389	-0.00391132	-0.0159425	0.281258	-0.0322129	0	0	0.309134	0.047761	-0.329495	0.329223	-0.135568	0	0	-0.202425	0.0804339	-0.0726881	-0.176954	-0.220943	-0.253735	0.448327	0.653637	0	0	-0.297252	-0.389129	0.980166	0.532619	0.630434	0	0
0.55	0.875282	1.51117	-2.49083	0.69766	0.645949	1.0529	-0.158105	-0.00694643	-0.0195994	0.284093	-0.0282004	0	0	0.31109	0.0498121	-0.329753	0.307075	-0.137394	0	0	-0.202644	0.0751383	-0.0684394	-0.176469	-0.219287	-0.253098	0.44773	0.65243	0	0	-0.302438	-0.386201	0.984625	0.528931	0.622962	0	0
0.56	0.860557	1.50988	-2.48209	0.697267	0.636103	1.05155	-0.167886	-0.00984225	-0.0230152	0.288286	-0.0245189	0	0	0.311035	0.0506432	-0.328656	0.290346	-0.13914	0	0	-0.204776	0.0695038	-0.0633226	-0.175921	-0.217486	-0.251944	0.447198	0.651115	0	0	-0.30686	-0.384605	0.989396	0.526119	0.615455	0	0
0.57	0.855477	1.50921	-2.48359	0.69677	0.626086	1.05019	-0.176092	-0.01271	-0.0256953	0.293919	-0.0213289	0	0	0.311752	0.0504499	-0.326785	0.279239	-0.14097	0	0	-0.206987	0.0652835	-0.0603176	-0.175373	-0.216582	-0.249585	0.449361	0.651115	0	0	-0.310669	-0.378594	0.993152	0.515656	0.607903	0	0
0.58	0.823025	1.50716	-2.45819	0.696211	0.616065	1.0489	-0.185904	-0.015893	-0.0289069	0.300974	-0.0182398	0	0	0.309955	0.0495309	-0.324307	0.274259	-0.142176	0	0	-0.209753	0.0595261	-0.0533204	-0.176514	-0.214831	-0.248253	0.449953	0.649777	0	0	-0.313783	-0.377995	0.998601	0.511487	0.601606	0	0
0.59	0.786258	1.50445	-2.42893	0.695633	0.605989	1.04766	-0.195521	-0.0196476	-0.0325012	0.309918	-0.0152272	0	0	0.307166	0.0483021	-0.321276	0.275289	-0.142928	0	0	-0.212967	0.0531561	-0.044928	-0.178481	-0.212921	-0.247187	0.450635	0.64779	0	0	-0.316198	-0.379201	1.00481	0.508465	0.594809	0	0
0.6	0.754095	1.50152	-2.40472	0.695069	0.595836	1.04646	-0.204112	-0.0240771	-0.0364405	0.320694	-0.0124842	0	0	0.304721	0.0467152	-0.319094	0.28295	-0.143627	0	0	-0.21598	0.0465329	-0.035957	-0.18093	-0.21111	-0.246058	0.451389	0.645366	0	0	-0.317614	-0.380764	1.01165	0.505306	0.586184	0	0
0.61	0.723391	1.49797	-2.38225	0.694592	0.585569	1.04538	-0.212266	-0.029448	-0.0397217	0.333409	-0.0097347	0	0	0.30171	0.0451651	-0.318193	0.296031	-0.144244	0	0	-0.218902	0.0396372	-0.0255502	-0.184903	-0.209754	-0.243826	0.452778	0.641717	0	0	-0.317139	-0.383972	1.02398	0.502743	0.572507	0	0
0.62	0.700115	1.49428	-2.36705	0.694277	0.575126	1.04433	-0.219474	-0.0358049	-0.042179	0.34821	-0.00816012	0	0	0.298337	0.0443435	-0.317621	0.312167	-0.145519	0	0	-0.220784	0.0325195	-0.015039	-0.189896	-0.208621	-0.241621	0.454187	0.637609	0	0	-0.316653	-0.387732	1.03649	0.499821	0.558376	0	0
0.63	0.682661	1.49035	-2.35724	0.694123	0.564482	1.04333	-0.22595	-0.043095	-0.0436221	0.365089	-0.00782968	0	0	0.294318	0.0443547	-0.317683	0.330901	-0.147489	0	0	-0.221982	0.0253849	-0.00529838	-0.195712	-0.20768	-0.240065	0.456117	0.634012	0	0	-0.316282	-0.39082	1.04718	0.495528	0.545812	0	0
0.64	0.664586	1.48615	-2.34614	0.694111	0.553628	1.04244	-0.232041	-0.0506623	-0.044558	0.383787	-0.00921769	0	0	0.288742	0.0448168	-0.317223	0.351785	-0.149412	0	0	-0.222929	0.0187057	0.00422144	-0.202795	-0.206834	-0.239591	0.458936	0.629482	0	0	-0.314941	-0.394029	1.05934	0.490765	0.532445	0	0
0.65	0.638861	1.48148	-2.3268	0.69426	0.542545	1.04167	-0.238261	-0.0580694	-0.045451	0.404181	-0.0131517	0	0	0.280613	0.0459784	-0.316824	0.37201	-0.150563	0	0	-0.22409	0.0130246	0.0149529	-0.212631	-0.206344	-0.240108	0.464162	0.622406	0	0	-0.311209	-0.3991	1.07903	0.4874	0.513165	0	0
0.66	0.611536	1.47646	-2.30553	0.694622	0.531238	1.04107	-0.243962	-0.0657835	-0.046212	0.426576	-0.0178565	0	0	0.270264	0.0483585	-0.317056	0.388301	-0.151743	0	0	-0.22503	0.00773215	0.0245182	-0.221803	-0.206304	-0.240191	0.467839	0.618874	0	0	-0.308588	-0.402915	1.09379	0.482394	0.499294	0	0
0.67	0.589895	1.4703	-2.29021	0.695133	0.519816	1.04077	-0.24879	-0.0749488	-0.0455237	0.451758	-0.0254691	0	0	0.258379	0.0523879	-0.320648	0.397049	-0.155965	0	0	-0.223963	0.00323663	0.0438993	-0.240177	-0.20702	-0.242156	0.477216	0.603411	0	0	-0.287607	-0.41533	1.177	0.482256	0.43092	0	0
0.68	0.593552	1.46418	-2.29829	0.69577	0.508272	1.04064	-0.250341	-0.085509	-0.0452827	0.480449	-0.0323369	0	0	0.24931	0.0584718	-0.32539	0.399315	-0.165176	0	0	-0.221695	-0.00444291	0.0502892	-0.246164	-0.2059	-0.243042	0.474406	0.60258	0	0	-0.286723	-0.418519	1.185	0.47518	0.422651	0	0
0.69	0.57102	1.45372	-2.278	0.696732	0.497097	1.04104	-0.255786	-0.0962399	-0.0458886	0.511651	-0.0462157	0	0	0.235836	0.0644133	-0.330429	0.40198	-0.182012	0	0	-0.226139	-0.0200868	0.0505521	-0.237273	-0.203134	-0.229444	0.451309	0.598963	0	0	-0.286425	-0.438542	1.19817	0.49536	0.403555	0	0
0.7	0.591243	1.44836	-2.29849	0.697807	0.485614	1.0414	-0.251412	-0.106565	-0.0438408	0.547563	-0.0582968	0	0	0.228992	0.0700783	-0.331465	0.40887	-0.196895	0	0	-0.223641	-0.028945	0.0477182	-0.237272	-0.201996	-0.223729	0.443233	0.598459	0	0	-0.286083	-0.439933	1.20285	0.485858	0.395763	0	0
0.71	0.618354	1.44467	-2.32404	0.699084	0.474047	1.04188	-0.242845	-0.11593	-0.0405493	0.586327	-0.0758695	0	0	0.22222	0.0755657	-0.329173	0.417119	-0.207608	0	0	-0.218434	-0.036962	0.0428165	-0.237081	-0.201149	-0.215005	0.433306	0.599508	0	0	-0.285589	-0.440909	1.2091	0.474862	0.388161	0	0
0.72	0.651892	1.44348	-2.35416	0.700643	0.462346	1.0424	-0.229435	-0.123772	-0.036932	0.627366	-0.0997625	0	0	0.217105	0.0806589	-0.324873	0.425025	-0.213339	0	0	-0.209852	-0.0429648	0.0357002	-0.237213	-0.20108	-0.203188	0.422319	0.600768	0	0	-0.284722	-0.441926	1.21709	0.464835	0.377479	0	0
0.73	0.676766	1.44267	-2.37568	0.702342	0.450858	1.04307	-0.213676	-0.130323	-0.0306394	0.670312	-0.128433	0	0	0.211389	0.0847043	-0.320202	0.433338	-0.215933	0	0	-0.202761	-0.0474259	0.0287712	-0.238275	-0.201822	-0.190194	0.413927	0.600459	0	0	-0.281962	-0.444784	1.22665	0.458967	0.365022	0	0
0.74	0.697374	1.44162	-2.39333	0.703993	0.439609	1.04378	-0.195744	-0.136087	-0.021582	0.714993	-0.161371	0	0	0.204473	0.0886379	-0.315152	0.440292	-0.215674	0	0	-0.197395	-0.051418	0.0223914	-0.240434	-0.202302	-0.180434	0.409263	0.597078	0	0	-0.277549	-0.449513	1.23642	0.456178	0.354998	0	0
0.75	0.721755	1.44065	-2.41517	0.705503	0.428617	1.04448	-0.174568	-0.141224	-0.00997308	0.76278	-0.199913	0	0	0.196705	0.093204	-0.310678	0.443297	-0.215227	0	0	-0.192241	-0.0556481	0.0162074	-0.243001	-0.202519	-0.172445	0.406664	0.592963	0	0	-0.271957	-0.455883	1.24588	0.455632	0.348094	0	0
0.76	0.755292	1.44029	-2.44695	0.707002	0.417802	1.04502	-0.149149	-0.146115	0.0031513	0.814394	-0.233679	0	0	0.189684	0.0980273	-0.308455	0.444137	-0.214772	0	0	-0.185907	-0.0599595	0.0107022	-0.246157	-0.202874	-0.166498	0.4059	0.59038	0	0	-0.266166	-0.464103	1.25162	0.458657	0.344015	0	0
0.77	0.802398	1.44209	-2.493	0.708729	0.407045	1.04523	-0.117861	-0.150182	0.0158517	0.869206	-0.264505	0	0	0.185574	0.102077	-0.309017	0.444888	-0.213015	0	0	-0.175934	-0.0628809	0.0063279	-0.250207	-0.20436	-0.161086	0.406284	0.588641	0	0	-0.2604	-0.472988	1.25441	0.464261	0.340871	0	0
